<svg width="95" height="49" viewBox="0 0 95 49" fill="none" xmlns="http://www.w3.org/2000/svg">
    <path d="M1.556 8.36H8.204V11H1.556V8.36ZM3.668 2.96H6.332V19.04H3.668V2.96ZM1.172 19.4C2.948 18.872 5.612 17.912 8.18 16.976L8.708 19.544C6.452 20.504 4.052 21.464 2.06 22.256L1.172 19.4ZM10.1 5.96H23.516V8.576H10.1V5.96ZM10.532 11.168H14.492V13.496H10.532V11.168ZM8.924 5.96H11.564V13.976C11.564 17.504 11.156 22.328 8.468 25.256C8.06 24.752 6.98 23.816 6.38 23.48C8.708 20.864 8.924 17.024 8.924 13.952V5.96ZM13.46 11.168H15.836C15.836 11.168 15.836 11.816 15.812 12.104C15.74 17.504 15.644 19.64 15.164 20.336C14.78 20.84 14.396 21.056 13.82 21.152C13.34 21.248 12.572 21.272 11.78 21.248C11.708 20.528 11.492 19.52 11.156 18.896C11.756 18.968 12.236 18.968 12.5 18.968C12.764 18.968 12.932 18.896 13.1 18.68C13.34 18.296 13.412 16.592 13.46 11.576V11.168ZM16.148 2.6H18.86C18.668 12.344 19.94 22.208 21.428 22.208C21.764 22.208 21.98 21.08 22.052 18.608C22.58 19.232 23.42 19.832 24.068 20.12C23.708 23.864 22.964 24.896 21.068 24.896C17.036 24.896 16.22 13.328 16.148 2.6ZM18.884 3.656L20.852 2.504C21.74 3.344 22.772 4.52 23.204 5.336L21.092 6.584C20.708 5.792 19.748 4.544 18.884 3.656ZM20.852 10.952L23.444 11.432C21.98 17.648 19.172 22.352 14.9 25.208C14.492 24.704 13.484 23.696 12.908 23.264C17.108 20.816 19.652 16.544 20.852 10.952ZM44.468 2.528H47.564V7.4H44.468V2.528ZM44.516 8.288H47.516V25.208H44.516V8.288ZM35.108 5.672H57.14V8.48H35.108V5.672ZM37.388 11H53.204V13.808H40.292V22.28H37.388V11ZM52.124 11H55.124V19.136C55.124 20.528 54.836 21.344 53.828 21.8C52.82 22.232 51.428 22.28 49.556 22.28C49.436 21.44 49.004 20.216 48.596 19.448C49.796 19.496 51.236 19.496 51.596 19.496C52.004 19.496 52.124 19.4 52.124 19.088V11ZM74.276 11.984V20.816H71.54V14.648H68.468V11.984H74.276ZM74.276 19.688C75.236 21.296 76.892 21.968 79.364 22.064C82.22 22.208 87.932 22.136 91.244 21.872C90.932 22.52 90.5 23.84 90.356 24.68C87.38 24.824 82.268 24.872 79.316 24.728C76.436 24.608 74.516 23.912 73.076 22.064C71.972 23 70.844 23.936 69.476 24.944L68.156 22.088C69.284 21.44 70.628 20.576 71.78 19.688H74.276ZM68.804 4.976L70.796 3.128C72.284 4.136 74.156 5.696 75.02 6.848L72.86 8.912C72.092 7.76 70.292 6.08 68.804 4.976ZM78.524 7.28L80.348 5.744C82.484 6.488 85.508 7.784 87.14 8.72L85.172 10.424C83.708 9.512 80.732 8.144 78.524 7.28ZM76.34 8.648H88.556V10.736H79.052V21.08H76.34V8.648ZM87.212 8.648H89.948V18.584C89.948 19.76 89.756 20.36 88.964 20.744C88.22 21.152 87.164 21.152 85.724 21.152C85.628 20.456 85.316 19.52 85.004 18.896C85.772 18.92 86.612 18.92 86.852 18.92C87.14 18.92 87.212 18.824 87.212 18.56V8.648ZM76.556 3.416H88.004V5.6H76.556V3.416ZM77.852 12.032H88.148V14.024H77.852V12.032ZM77.852 15.392H88.148V17.48H77.852V15.392ZM81.812 9.632H84.38V20.984H81.812V9.632ZM86.972 3.416H87.62L88.196 3.272L89.9 4.664C88.196 6.248 85.82 7.952 83.612 9.008C83.276 8.528 82.58 7.784 82.172 7.4C83.972 6.536 86.06 5.024 86.972 3.92V3.416Z" fill="#475259"/>
    <path d="M1.06818 36.7451V34.7167H10.625V36.7451H7.0625V46.353H4.63068V36.7451H1.06818ZM22.3608 40.5348C22.3608 41.8038 22.1203 42.8833 21.6392 43.7735C21.1619 44.6636 20.5104 45.3436 19.6847 45.8133C18.8627 46.2792 17.9384 46.5121 16.9119 46.5121C15.8778 46.5121 14.9498 46.2773 14.1278 45.8076C13.3059 45.3379 12.6563 44.658 12.179 43.7678C11.7017 42.8776 11.4631 41.8 11.4631 40.5348C11.4631 39.2659 11.7017 38.1864 12.179 37.2962C12.6563 36.4061 13.3059 35.728 14.1278 35.2621C14.9498 34.7924 15.8778 34.5576 16.9119 34.5576C17.9384 34.5576 18.8627 34.7924 19.6847 35.2621C20.5104 35.728 21.1619 36.4061 21.6392 37.2962C22.1203 38.1864 22.3608 39.2659 22.3608 40.5348ZM19.8665 40.5348C19.8665 39.7129 19.7434 39.0197 19.4972 38.4553C19.2547 37.8909 18.9119 37.4629 18.4688 37.1712C18.0256 36.8795 17.5066 36.7337 16.9119 36.7337C16.3172 36.7337 15.7983 36.8795 15.3551 37.1712C14.9119 37.4629 14.5672 37.8909 14.321 38.4553C14.0786 39.0197 13.9574 39.7129 13.9574 40.5348C13.9574 41.3568 14.0786 42.05 14.321 42.6144C14.5672 43.1788 14.9119 43.6068 15.3551 43.8985C15.7983 44.1901 16.3172 44.336 16.9119 44.336C17.5066 44.336 18.0256 44.1901 18.4688 43.8985C18.9119 43.6068 19.2547 43.1788 19.4972 42.6144C19.7434 42.05 19.8665 41.3568 19.8665 40.5348ZM26.3651 46.353L23.0355 34.7167H25.723L27.6491 42.8019H27.7457L29.8707 34.7167H32.1719L34.2912 42.8189H34.3935L36.3196 34.7167H39.0071L35.6776 46.353H33.2798L31.0639 38.7451H30.973L28.7628 46.353H26.3651ZM50.0568 34.7167V46.353H47.9318L42.8693 39.0292H42.7841V46.353H40.3239V34.7167H42.483L47.5057 42.0348H47.608V34.7167H50.0568Z" fill="#5AB4C5"/>
    <path d="M55.7784 46.1768V34.5404H59.9261C60.8314 34.5404 61.5814 34.7052 62.1761 35.0347C62.7708 35.3643 63.2159 35.815 63.5114 36.387C63.8068 36.9552 63.9545 37.5953 63.9545 38.3074C63.9545 39.0233 63.8049 39.6673 63.5057 40.2393C63.2102 40.8074 62.7633 41.2582 62.1648 41.5915C61.5701 41.9211 60.822 42.0858 59.9205 42.0858H57.0682V40.5972H59.7614C60.3333 40.5972 60.7973 40.4987 61.1534 40.3018C61.5095 40.101 61.7708 39.8283 61.9375 39.4836C62.1042 39.1389 62.1875 38.7468 62.1875 38.3074C62.1875 37.868 62.1042 37.4779 61.9375 37.137C61.7708 36.7961 61.5076 36.529 61.1477 36.3358C60.7917 36.1427 60.322 36.0461 59.7386 36.0461H57.5341V46.1768H55.7784ZM65.7614 46.1768H63.8977L68.0852 34.5404H70.1136L74.3011 46.1768H72.4375L69.1477 36.654H69.0568L65.7614 46.1768ZM66.0739 41.6199H72.1193V43.0972H66.0739V41.6199ZM82.2344 37.5972C82.1738 37.0593 81.9238 36.6427 81.4844 36.3472C81.045 36.048 80.492 35.8983 79.8253 35.8983C79.348 35.8983 78.9351 35.9741 78.5866 36.1256C78.2382 36.2733 77.9673 36.4779 77.7741 36.7393C77.5848 36.9968 77.4901 37.2904 77.4901 37.6199C77.4901 37.8965 77.5545 38.1351 77.6832 38.3358C77.8158 38.5366 77.9882 38.7052 78.2003 38.8415C78.4162 38.9741 78.6473 39.0858 78.8935 39.1768C79.1397 39.2639 79.3764 39.3358 79.6037 39.3927L80.7401 39.6881C81.1113 39.779 81.492 39.9021 81.8821 40.0574C82.2723 40.2127 82.634 40.4173 82.9673 40.6711C83.3007 40.9249 83.5696 41.2393 83.7741 41.6143C83.9825 41.9893 84.0866 42.4381 84.0866 42.9608C84.0866 43.6199 83.9162 44.2052 83.5753 44.7165C83.2382 45.2279 82.7476 45.6313 82.1037 45.9268C81.4635 46.2222 80.6889 46.3699 79.7798 46.3699C78.9086 46.3699 78.1548 46.2317 77.5185 45.9552C76.8821 45.6787 76.384 45.2866 76.0241 44.779C75.6643 44.2677 75.4654 43.6616 75.4276 42.9608H77.1889C77.223 43.3813 77.3594 43.7317 77.598 44.012C77.8404 44.2885 78.1491 44.4949 78.5241 44.6313C78.9029 44.7639 79.3177 44.8302 79.7685 44.8302C80.2647 44.8302 80.706 44.7525 81.0923 44.5972C81.4825 44.4381 81.7893 44.2184 82.0128 43.9381C82.2363 43.654 82.348 43.3226 82.348 42.9438C82.348 42.5991 82.2495 42.3169 82.0526 42.0972C81.8594 41.8775 81.5961 41.6957 81.2628 41.5518C80.9332 41.4078 80.5601 41.2809 80.1435 41.1711L78.7685 40.7961C77.8366 40.5423 77.098 40.1692 76.5526 39.6768C76.0109 39.1843 75.7401 38.5328 75.7401 37.7222C75.7401 37.0518 75.9219 36.4665 76.2855 35.9665C76.6491 35.4665 77.1416 35.0783 77.7628 34.8018C78.384 34.5215 79.0848 34.3813 79.8651 34.3813C80.6529 34.3813 81.348 34.5196 81.9503 34.7961C82.5563 35.0726 83.0336 35.4533 83.3821 35.9381C83.7306 36.4192 83.9124 36.9722 83.9276 37.5972H82.2344ZM92.5312 37.5972C92.4706 37.0593 92.2206 36.6427 91.7812 36.3472C91.3419 36.048 90.7888 35.8983 90.1222 35.8983C89.6449 35.8983 89.232 35.9741 88.8835 36.1256C88.535 36.2733 88.2642 36.4779 88.071 36.7393C87.8816 36.9968 87.7869 37.2904 87.7869 37.6199C87.7869 37.8965 87.8513 38.1351 87.9801 38.3358C88.1127 38.5366 88.285 38.7052 88.4972 38.8415C88.7131 38.9741 88.9441 39.0858 89.1903 39.1768C89.4366 39.2639 89.6733 39.3358 89.9006 39.3927L91.0369 39.6881C91.4081 39.779 91.7888 39.9021 92.179 40.0574C92.5691 40.2127 92.9309 40.4173 93.2642 40.6711C93.5975 40.9249 93.8665 41.2393 94.071 41.6143C94.2794 41.9893 94.3835 42.4381 94.3835 42.9608C94.3835 43.6199 94.2131 44.2052 93.8722 44.7165C93.535 45.2279 93.0445 45.6313 92.4006 45.9268C91.7604 46.2222 90.9858 46.3699 90.0767 46.3699C89.2055 46.3699 88.4517 46.2317 87.8153 45.9552C87.179 45.6787 86.6809 45.2866 86.321 44.779C85.9612 44.2677 85.7623 43.6616 85.7244 42.9608H87.4858C87.5199 43.3813 87.6563 43.7317 87.8949 44.012C88.1373 44.2885 88.446 44.4949 88.821 44.6313C89.1998 44.7639 89.6146 44.8302 90.0653 44.8302C90.5616 44.8302 91.0028 44.7525 91.3892 44.5972C91.7794 44.4381 92.0862 44.2184 92.3097 43.9381C92.5331 43.654 92.6449 43.3226 92.6449 42.9438C92.6449 42.5991 92.5464 42.3169 92.3494 42.0972C92.1563 41.8775 91.893 41.6957 91.5597 41.5518C91.2301 41.4078 90.857 41.2809 90.4403 41.1711L89.0653 40.7961C88.1335 40.5423 87.3949 40.1692 86.8494 39.6768C86.3078 39.1843 86.0369 38.5328 86.0369 37.7222C86.0369 37.0518 86.2188 36.4665 86.5824 35.9665C86.946 35.4665 87.4384 35.0783 88.0597 34.8018C88.6809 34.5215 89.3816 34.3813 90.1619 34.3813C90.9498 34.3813 91.6449 34.5196 92.2472 34.7961C92.8532 35.0726 93.3305 35.4533 93.679 35.9381C94.0275 36.4192 94.2093 36.9722 94.2244 37.5972H92.5312Z" fill="#475259"/>
</svg>