<svg xmlns="http://www.w3.org/2000/svg" xmlns:xlink="http://www.w3.org/1999/xlink" version="1.1" width="256" height="256" viewBox="0 0 256 256" xml:space="preserve">

<defs>
</defs>
<g style="stroke: none; stroke-width: 0; stroke-dasharray: none; stroke-linecap: butt; stroke-linejoin: miter; stroke-miterlimit: 10; fill: none; fill-rule: nonzero; opacity: 1;" transform="translate(1.4065934065934016 1.4065934065934016) scale(2.81 2.81)" >
	<path d="M 18.617 88.99 C 8.352 88.99 0 80.639 0 70.373 s 8.352 -18.617 18.617 -18.617 c 10.265 0 18.617 8.352 18.617 18.617 S 28.882 88.99 18.617 88.99 z M 18.617 55.756 C 10.557 55.756 4 62.313 4 70.373 S 10.557 84.99 18.617 84.99 c 8.06 0 14.617 -6.558 14.617 -14.617 S 26.677 55.756 18.617 55.756 z" style="stroke: none; stroke-width: 1; stroke-dasharray: none; stroke-linecap: butt; stroke-linejoin: miter; stroke-miterlimit: 10; fill: #5AB4C5; fill-rule: nonzero; opacity: 1;" transform=" matrix(1 0 0 1 0 0) " stroke-linecap="round" />
	<path d="M 71.383 88.99 c -10.266 0 -18.617 -8.352 -18.617 -18.617 s 8.352 -18.617 18.617 -18.617 S 90 60.107 90 70.373 S 81.648 88.99 71.383 88.99 z M 71.383 55.756 c -8.06 0 -14.617 6.558 -14.617 14.617 S 63.323 84.99 71.383 84.99 S 86 78.433 86 70.373 S 79.442 55.756 71.383 55.756 z" style="stroke: none; stroke-width: 1; stroke-dasharray: none; stroke-linecap: butt; stroke-linejoin: miter; stroke-miterlimit: 10; fill: #5AB4C5; fill-rule: nonzero; opacity: 1;" transform=" matrix(1 0 0 1 0 0) " stroke-linecap="round" />
	<path d="M 71.382 72.373 c -0.893 0 -1.706 -0.601 -1.937 -1.506 l -8.515 -33.359 c -0.273 -1.07 0.373 -2.159 1.443 -2.433 c 1.07 -0.27 2.159 0.374 2.432 1.443 l 8.515 33.36 c 0.273 1.069 -0.373 2.159 -1.443 2.432 C 71.712 72.354 71.545 72.373 71.382 72.373 z" style="stroke: none; stroke-width: 1; stroke-dasharray: none; stroke-linecap: butt; stroke-linejoin: miter; stroke-miterlimit: 10; fill: #5AB4C5; fill-rule: nonzero; opacity: 1;" transform=" matrix(1 0 0 1 0 0) " stroke-linecap="round" />
	<path d="M 40.16 52.556 l -13.818 -9.778 c -3.093 -2.189 -3.718 -6.524 -1.368 -9.497 L 36.687 18.46 c 2.626 -3.323 7.657 -3.355 10.324 -0.064 l 7.115 8.778 c 1.024 1.263 2.423 2.166 3.995 2.579 l 8.679 2.279 c 1.49 0.391 2.44 1.927 2.006 3.515 c -0.353 1.291 -1.659 2.09 -2.997 2.046 l -9.721 -0.32 c -2.071 -0.068 -4.026 -0.974 -5.416 -2.511 l -4.602 -5.087 c -0.04 -0.044 -0.109 -0.044 -0.149 0 l -6.705 7.413 c -0.039 0.043 -0.033 0.109 0.012 0.146 l 10.899 8.769 c 1.669 1.343 2.441 3.509 1.999 5.605 l -4.699 22.24 c -0.274 1.982 -1.969 3.458 -3.97 3.458 h 0 c -2.213 0 -4.008 -1.794 -4.008 -4.008 l 2.016 -17.827 C 41.593 54.333 41.093 53.217 40.16 52.556 z" style="stroke: none; stroke-width: 1; stroke-dasharray: none; stroke-linecap: butt; stroke-linejoin: miter; stroke-miterlimit: 10; fill: #5AB4C5; fill-rule: nonzero; opacity: 1;" transform=" matrix(1 0 0 1 0 0) " stroke-linecap="round" />
	<circle cx="55.753" cy="11.033" r="8.023" style="stroke: none; stroke-width: 1; stroke-dasharray: none; stroke-linecap: butt; stroke-linejoin: miter; stroke-miterlimit: 10; fill: #5AB4C5; fill-rule: nonzero; opacity: 1;" transform="  matrix(1 0 0 1 0 0) "/>
	<path d="M 35.98 68.373 H 22.128 l 9.891 -16.676 l -3.276 -2.318 L 16.897 69.353 c -0.367 0.618 -0.374 1.386 -0.018 2.011 c 0.355 0.624 1.019 1.01 1.738 1.01 h 16.911 L 35.98 68.373 z" style="stroke: none; stroke-width: 1; stroke-dasharray: none; stroke-linecap: butt; stroke-linejoin: miter; stroke-miterlimit: 10; fill: #5AB4C5; fill-rule: nonzero; opacity: 1;" transform=" matrix(1 0 0 1 0 0) " stroke-linecap="round" />
	<path d="M 64.636 41.936 H 51.454 l 1.18 0.95 c 1.061 0.853 1.906 1.895 2.512 3.05 h 5 l -3.918 4.357 c 0.009 0.709 -0.038 1.425 -0.189 2.14 l -1.119 5.296 l 11.202 -12.456 c 0.527 -0.587 0.661 -1.43 0.34 -2.151 S 65.426 41.936 64.636 41.936 z" style="stroke: none; stroke-width: 1; stroke-dasharray: none; stroke-linecap: butt; stroke-linejoin: miter; stroke-miterlimit: 10; fill: #5AB4C5; fill-rule: nonzero; opacity: 1;" transform=" matrix(1 0 0 1 0 0) " stroke-linecap="round" />
</g>
</svg>
