<svg xmlns="http://www.w3.org/2000/svg" viewBox="0 0 32 32"><defs><style>.cls-1{fill:#5AB4C5}</style></defs><g id="school_locker" data-name="school locker"><path class="cls-1" d="M27.6 2H26a1 1 0 0 0 0 2h1.6a.4.4 0 0 1 .4.4V25H17V4h5a1 1 0 0 0 0-2H4.4A2.41 2.41 0 0 0 2 4.4V17a1 1 0 0 0 2 0V4.4a.4.4 0 0 1 .4-.4H15v21H4v-4a1 1 0 0 0-2 0v8a1 1 0 0 0 1 1h3a1 1 0 0 0 1-1v-2h18v2a1 1 0 0 0 1 1h3a1 1 0 0 0 1-1V4.4A2.41 2.41 0 0 0 27.6 2zM5 28H4v-1h1zm23 0h-1v-1h1z"/><path class="cls-1" d="M6 24h7a1 1 0 0 0 0-2H6a1 1 0 0 0 0 2zM6 8h7a1 1 0 0 0 0-2H6a1 1 0 0 0 0 2zM26 6h-7a1 1 0 0 0 0 2h7a1 1 0 0 0 0-2zM6 11h7a1 1 0 0 0 0-2H6a1 1 0 0 0 0 2zM19 11h7a1 1 0 0 0 0-2h-7a1 1 0 0 0 0 2zM19 24h7a1 1 0 0 0 0-2h-7a1 1 0 0 0 0 2zM13 14a1 1 0 1 0 1 1 1 1 0 0 0-1-1zM26 14a1 1 0 1 0 1 1 1 1 0 0 0-1-1z"/></g></svg>