<svg width="24" height="24" viewBox="0 0 24 24" fill="none" xmlns="http://www.w3.org/2000/svg">
<path d="M18.0191 6.58392H5.57574C5.34819 6.58392 5.13021 6.49352 4.9693 6.33261C4.80839 6.1717 4.71783 5.95348 4.71783 5.72592C4.71783 5.49837 4.80839 5.28014 4.9693 5.11923C5.13021 4.95833 5.34819 4.86792 5.57574 4.86792H18.0191C18.2467 4.86792 18.4646 4.95833 18.6255 5.11923C18.7865 5.28014 18.877 5.49837 18.877 5.72592C18.877 5.95348 18.7865 6.1717 18.6255 6.33261C18.4646 6.49352 18.2467 6.58392 18.0191 6.58392Z" fill="#5AB4C5"/>
<path d="M16.4038 17.383H6.71289C6.17989 17.3889 5.65154 17.2847 5.16064 17.077C4.66974 16.8693 4.22682 16.5626 3.85986 16.176C3.55824 15.8576 3.32642 15.4795 3.17968 15.0662C3.03295 14.6528 2.9745 14.2134 3.00781 13.776L3.79003 4.11402C3.9101 3.22825 4.35516 2.41882 5.03906 1.84324C5.72295 1.26765 6.59648 0.967074 7.48974 1H15.6147C16.508 0.967074 17.3815 1.26765 18.0654 1.84324C18.7493 2.41882 19.1949 3.22825 19.3149 4.11402L20.0967 13.776C20.13 14.2134 20.0715 14.6528 19.9248 15.0662C19.7781 15.4795 19.5463 15.8576 19.2446 16.176C18.8793 16.5614 18.4385 16.8675 17.9497 17.0751C17.4609 17.2828 16.9348 17.3876 16.4038 17.383ZM7.49658 2.71601C7.03324 2.68097 6.57352 2.81859 6.20556 3.10236C5.83761 3.38613 5.58776 3.79599 5.5039 4.25303L4.72168 13.914C4.70793 14.1151 4.73677 14.3169 4.80566 14.5063C4.87455 14.6958 4.98187 14.8687 5.12158 15.014C5.32765 15.2264 5.57539 15.3941 5.84912 15.5067C6.12284 15.6192 6.417 15.6741 6.71289 15.668H16.4019C16.6976 15.6741 16.9916 15.6192 17.2651 15.5067C17.5387 15.3942 17.7858 15.2264 17.9917 15.014C18.1316 14.8688 18.2397 14.696 18.3086 14.5065C18.3775 14.317 18.4056 14.1151 18.3916 13.914L17.6108 4.25202C17.5268 3.79527 17.2769 3.3857 16.9092 3.10199C16.5415 2.81829 16.0818 2.68048 15.6186 2.71503L7.49658 2.71601Z" fill="#5AB4C5"/>
<path d="M6.73593 22.89C6.59793 22.8885 6.46227 22.8539 6.34042 22.7891C6.21857 22.7243 6.11412 22.6313 6.03573 22.5177C5.95734 22.4041 5.90759 22.2734 5.89022 22.1365C5.87286 21.9996 5.88857 21.8605 5.93612 21.731L7.57723 17.331C7.65758 17.1194 7.81798 16.9481 8.02401 16.8545C8.23004 16.7608 8.46461 16.7524 8.67684 16.831C8.88858 16.9111 9.06021 17.0718 9.15389 17.2779C9.24758 17.484 9.25569 17.7188 9.17684 17.931L7.53622 22.331C7.47558 22.4945 7.36618 22.6356 7.22323 22.7355C7.08028 22.8354 6.91031 22.8893 6.73593 22.89Z" fill="#5AB4C5"/>
<path d="M16.1889 22.8889C16.0145 22.8877 15.8445 22.8335 15.7016 22.7335C15.5587 22.6334 15.4499 22.4923 15.3891 22.3289L13.7489 17.9289C13.6694 17.7157 13.6779 17.4796 13.7724 17.2725C13.8669 17.0655 14.0396 16.9045 14.2528 16.8249C14.4661 16.7453 14.7021 16.7537 14.9091 16.8483C15.1161 16.9428 15.2773 17.1157 15.3568 17.3289L16.997 21.7289C17.0448 21.8585 17.0606 21.9976 17.0434 22.1346C17.0261 22.2716 16.9763 22.4024 16.8979 22.5161C16.8194 22.6297 16.7147 22.7228 16.5927 22.7875C16.4707 22.8522 16.3348 22.8867 16.1967 22.8879L16.1889 22.8889Z" fill="#5AB4C5"/>
<path d="M15.3699 20.6879H7.55591C7.32835 20.6879 7.11037 20.5975 6.94946 20.4366C6.78856 20.2757 6.698 20.0575 6.698 19.8299C6.698 19.6024 6.78856 19.3841 6.94946 19.2232C7.11037 19.0623 7.32835 18.9719 7.55591 18.9719H15.3699C15.5974 18.9719 15.8159 19.0623 15.9768 19.2232C16.1377 19.3841 16.2278 19.6024 16.2278 19.8299C16.2278 20.0575 16.1377 20.2757 15.9768 20.4366C15.8159 20.5975 15.5974 20.6879 15.3699 20.6879Z" fill="#5AB4C5"/>
<path d="M18.8769 12.591H4.28799C4.06044 12.591 3.84197 12.5006 3.68106 12.3397C3.52015 12.1788 3.43008 11.9606 3.43008 11.733C3.43008 11.5054 3.52015 11.2872 3.68106 11.1263C3.84197 10.9654 4.06044 10.875 4.28799 10.875H18.8769C19.1044 10.875 19.3229 10.9654 19.4838 11.1263C19.6447 11.2872 19.7348 11.5054 19.7348 11.733C19.7348 11.9606 19.6447 12.1788 19.4838 12.3397C19.3229 12.5006 19.1044 12.591 18.8769 12.591Z" fill="#5AB4C5"/>
</svg>
